<svg width="40" height="40" viewBox="0 0 40 40" fill="none" xmlns="http://www.w3.org/2000/svg">
<path fill-rule="evenodd" clip-rule="evenodd" d="M28.2871 13.243C28.6761 13.243 29 13.566 29 13.977V14.357C29 14.758 28.6761 15.0909 28.2871 15.0909H11.7139C11.3239 15.0909 11 14.758 11 14.357V13.977C11 13.566 11.3239 13.243 11.7139 13.243H14.6296C15.2218 13.243 15.7373 12.822 15.8705 12.228L16.0232 11.546C16.2605 10.617 17.0415 10 17.9353 10H22.0647C22.9488 10 23.7385 10.617 23.967 11.497L24.1304 12.227C24.2627 12.822 24.7781 13.243 25.3714 13.243H28.2871ZM26.8058 27.134C27.1102 24.2971 27.6432 17.5571 27.6432 17.4891C27.6626 17.2831 27.5955 17.0881 27.4623 16.9311C27.3193 16.7841 27.1384 16.6971 26.9391 16.6971H13.0685C12.8682 16.6971 12.6776 16.7841 12.5453 16.9311C12.4111 17.0881 12.3449 17.2831 12.3547 17.4891C12.3565 17.5016 12.3756 17.739 12.4076 18.1359C12.5496 19.8992 12.9452 24.8102 13.2008 27.134C13.3817 28.846 14.505 29.922 16.1321 29.961C17.3876 29.99 18.6811 30 20.0038 30C21.2496 30 22.5149 29.99 23.8094 29.961C25.4929 29.932 26.6152 28.875 26.8058 27.134Z" fill="#BABCBF"/>
<rect x="0.5" y="0.5" width="39" height="39" rx="7.5" stroke="#DADBDE"/>
</svg>
